<?xml version="1.0" encoding="utf-8"?>
<!-- Generator: Adobe Illustrator 22.0.1, SVG Export Plug-In . SVG Version: 6.00 Build 0)  -->
<svg version="1.0" id="Capa_1" xmlns="http://www.w3.org/2000/svg" xmlns:xlink="http://www.w3.org/1999/xlink" x="0px" y="0px"
	 viewBox="0 0 85 85" style="enable-background:new 0 0 85 85;" xml:space="preserve">
<style type="text/css">
	.st0{fill:#9D9D9C;stroke:#706F6F;stroke-width:2;stroke-miterlimit:10;}
	.st1{fill:none;stroke:#706F6F;stroke-miterlimit:10;}
	.st2{fill:none;stroke:#706F6F;stroke-width:2;stroke-miterlimit:10;}
	.st3{fill:#EDEDED;stroke:#706F6F;stroke-width:2;stroke-miterlimit:10;}
</style>
<circle class="st0" cx="42.5" cy="42.5" r="39.9"/>
<line class="st1" x1="49.1" y1="26.1" x2="36" y2="27.9"/>
<line class="st1" x1="49.1" y1="24.3" x2="36" y2="26.1"/>
<line class="st1" x1="49.1" y1="22.7" x2="36" y2="24.5"/>
<line class="st1" x1="49.1" y1="20.9" x2="36" y2="22.7"/>
<line class="st1" x1="37" y1="27.8" x2="48.1" y2="27.8"/>
<line class="st1" x1="37" y1="20.7" x2="48.1" y2="20.7"/>
<path class="st2" d="M46,18.8c-0.5-1.4-1.8-2.5-3.5-2.5c-1.6,0-3,1-3.5,2.5"/>
<path class="st2" d="M36.9,21v8.8h11.2V21c0-1.2-1-2.1-2.1-2.1h-6.9C37.9,18.8,36.9,19.8,36.9,21z"/>
<path class="st3" d="M49.7,32.7v-1.2c0-1-0.8-1.9-1.9-1.9h-3h-4.8h-3c-1,0-1.9,0.8-1.9,1.9v1.2c0,4.7-1.4,9.4-4.1,13.3l0,0.1h9.4
	h3.8h9.4l0-0.1C51.2,42.1,49.7,37.5,49.7,32.7z"/>
<path class="st3" d="M56.6,54.5c0-3.1-1-6.1-2.8-8.4H31.2c-1.7,2.3-2.8,5.3-2.8,8.4c0,7.8,6.3,14.1,14.1,14.1
	C50.3,68.6,56.6,62.3,56.6,54.5z"/>
</svg>
