<?xml version="1.0" encoding="utf-8"?>
<!-- Generator: Adobe Illustrator 22.0.1, SVG Export Plug-In . SVG Version: 6.00 Build 0)  -->
<svg version="1.0" id="Capa_1" xmlns="http://www.w3.org/2000/svg" xmlns:xlink="http://www.w3.org/1999/xlink" x="0px" y="0px"
	 viewBox="0 0 85 85" style="enable-background:new 0 0 85 85;" xml:space="preserve">
<style type="text/css">
	.st0{fill:#9D9D9C;stroke:#706F6F;stroke-width:2;stroke-miterlimit:10;}
	.st1{fill:none;stroke:#706F6F;stroke-miterlimit:10;}
	.st2{fill:none;stroke:#706F6F;stroke-width:2;stroke-miterlimit:10;}
	.st3{fill:#EDEDED;stroke:#706F6F;stroke-width:2;stroke-miterlimit:10;}
</style>
<circle class="st0" cx="42.5" cy="42.5" r="39.9"/>
<line class="st1" x1="36" y1="58.9" x2="49.1" y2="57.1"/>
<line class="st1" x1="36" y1="60.7" x2="49.1" y2="58.9"/>
<line class="st1" x1="36" y1="62.2" x2="49.1" y2="60.4"/>
<line class="st1" x1="36" y1="64" x2="49.1" y2="62.2"/>
<line class="st1" x1="48.1" y1="57.2" x2="37" y2="57.2"/>
<line class="st1" x1="48.1" y1="64.2" x2="37" y2="64.2"/>
<path class="st2" d="M39.1,66.1c0.5,1.4,1.8,2.5,3.5,2.5c1.6,0,3-1,3.5-2.5"/>
<path class="st2" d="M48.1,64v-8.8H37V64c0,1.2,1,2.1,2.1,2.1H46C47.2,66.1,48.1,65.2,48.1,64z"/>
<path class="st3" d="M35.3,52.2v1.2c0,1,0.8,1.9,1.9,1.9h3h4.8h3c1,0,1.9-0.8,1.9-1.9v-1.2c0-4.7,1.4-9.4,4.1-13.3l0-0.1h-9.4h-3.8
	h-9.4l0,0.1C33.9,42.8,35.3,47.5,35.3,52.2z"/>
<path class="st3" d="M28.4,30.4c0,3.1,1,6.1,2.8,8.4h22.7c1.7-2.3,2.8-5.3,2.8-8.4c0-7.8-6.3-14.1-14.1-14.1
	C34.7,16.3,28.4,22.6,28.4,30.4z"/>
</svg>
