<?xml version="1.0" encoding="utf-8"?>
<!-- Generator: Adobe Illustrator 22.0.1, SVG Export Plug-In . SVG Version: 6.00 Build 0)  -->
<svg version="1.0" id="Capa_1" xmlns="http://www.w3.org/2000/svg" xmlns:xlink="http://www.w3.org/1999/xlink" x="0px" y="0px"
	 viewBox="0 0 85 85" style="enable-background:new 0 0 85 85;" xml:space="preserve">
<style type="text/css">
	.st0{fill:#9D9D9C;stroke:#706F6F;stroke-width:2;stroke-miterlimit:10;}
	.st1{fill:#717171;}
	.st2{fill:#D3D3D3;}
</style>
<circle class="st0" cx="42.5" cy="42.5" r="39.9"/>
<g>
	<path class="st1" d="M68.1,50c-5.8,0-11.6,0-17.4,0c-0.6,0-0.8,0.2-0.8,0.8c0,5.8,0,11.6,0,17.4c-5.2,0-10.5,0-15.7,0
		c0-5.8,0-11.6,0-17.4c0-0.6-0.2-0.8-0.8-0.8c-5.8,0-11.6,0-17.4,0c0-5.2,0-10.5,0-15.7c5.8,0,11.6,0,17.4,0c0.6,0,0.8-0.2,0.8-0.8
		c0-5.8,0-11.6,0-17.4c5.2,0,10.5,0,15.7,0c0,5.8,0,11.6,0,17.4c0,0.6,0.2,0.8,0.8,0.8c5.8,0,11.6,0,17.4,0
		C68.1,39.5,68.1,44.7,68.1,50z M44.9,34.4c0,0,0-0.1,0-0.1c1,0,2,0,3,0c0.5,0,0.6-0.1,0.6-0.6c0-5.2,0-10.3,0-15.5
		c0-0.4-0.1-0.6-0.6-0.6c-3.9,0-7.8,0-11.7,0c-0.4,0-0.6,0.1-0.6,0.6c0,5.2,0,10.3,0,15.5c0,0.5,0.2,0.6,0.6,0.6c1,0,2,0,3,0
		c-0.9,0.5-1.9,0.9-2.9,1.2c-0.5,0.2-0.8,0.5-1,1c-0.3,1-0.7,1.9-1.1,2.9c-0.1-1-0.2-2-0.1-2.9c0-0.6-0.2-0.8-0.8-0.8
		c-5.1,0-10.1,0-15.2,0c-0.6,0-0.7,0.2-0.7,0.7c0,3.8,0,7.6,0,11.4c0,0.5,0.1,0.7,0.7,0.7c5.1,0,10.2,0,15.3,0
		c0.6,0,0.7-0.2,0.7-0.7c0-1,0-1.9,0-2.9c0.5,0.9,0.9,1.9,1.2,2.9c0.2,0.5,0.5,0.8,1,1c1,0.3,1.9,0.7,2.9,1.1c-1,0.1-2,0.2-3,0.1
		c-0.5,0-0.7,0.1-0.7,0.6c0,5.1,0,10.3,0,15.4c0,0.5,0.1,0.6,0.6,0.6c3.9,0,7.8,0,11.7,0c0.5,0,0.6-0.1,0.6-0.6c0-5.1,0-10.3,0-15.4
		c0-0.5-0.1-0.7-0.6-0.6c-1,0-1.9,0-2.9,0c0.9-0.5,1.8-0.9,2.7-1.2c0.5-0.2,0.8-0.5,1-1c0.3-1,0.7-1.9,1.1-2.9c0.1,1,0.2,2,0.1,3
		c0,0.5,0.1,0.6,0.6,0.6c5.2,0,10.3,0,15.5,0c0.4,0,0.6-0.1,0.6-0.6c0-3.9,0-7.8,0-11.7c0-0.4-0.2-0.6-0.6-0.6c-5.2,0-10.3,0-15.5,0
		c-0.5,0-0.6,0.2-0.6,0.6c0,1,0,2,0,3c-0.4-0.8-0.8-1.5-1-2.3c-0.3-0.9-0.7-1.5-1.7-1.7C46.4,35.1,45.6,34.7,44.9,34.4z"/>
	<path class="st2" d="M44.9,34.4c0.8,0.3,1.6,0.7,2.4,0.9c0.9,0.2,1.4,0.8,1.7,1.7c0.2,0.8,0.6,1.5,1,2.3c0-1,0-2,0-3
		c0-0.5,0.1-0.6,0.6-0.6c5.2,0,10.3,0,15.5,0c0.4,0,0.6,0.1,0.6,0.6c0,3.9,0,7.8,0,11.7c0,0.4-0.1,0.6-0.6,0.6c-5.2,0-10.3,0-15.5,0
		c-0.5,0-0.6-0.1-0.6-0.6c0-1,0-2-0.1-3c-0.4,1-0.8,1.9-1.1,2.9c-0.2,0.5-0.5,0.8-1,1c-0.9,0.3-1.8,0.7-2.7,1.2c1,0,1.9,0,2.9,0
		c0.5,0,0.6,0.1,0.6,0.6c0,5.1,0,10.3,0,15.4c0,0.5-0.1,0.6-0.6,0.6c-3.9,0-7.8,0-11.7,0c-0.5,0-0.6-0.2-0.6-0.6
		c0-5.1,0-10.3,0-15.4c0-0.5,0.2-0.7,0.7-0.6c1,0,2,0,3-0.1c-1-0.4-1.9-0.8-2.9-1.1c-0.5-0.2-0.8-0.5-1-1c-0.3-1-0.7-1.9-1.2-2.9
		c0,1,0,1.9,0,2.9c0,0.5-0.1,0.7-0.7,0.7c-5.1,0-10.2,0-15.3,0c-0.6,0-0.7-0.2-0.7-0.7c0-3.8,0-7.6,0-11.4c0-0.6,0.1-0.7,0.7-0.7
		c5.1,0,10.1,0,15.2,0c0.6,0,0.8,0.1,0.8,0.8c-0.1,1,0,1.9,0.1,2.9c0.4-1,0.8-1.9,1.1-2.9c0.2-0.5,0.5-0.8,1-1
		c1-0.3,1.9-0.7,2.9-1.2c-1,0-2,0-3,0c-0.5,0-0.6-0.1-0.6-0.6c0-5.2,0-10.3,0-15.5c0-0.4,0.1-0.6,0.6-0.6c3.9,0,7.8,0,11.7,0
		c0.4,0,0.6,0.1,0.6,0.6c0,5.2,0,10.3,0,15.5c0,0.5-0.2,0.6-0.6,0.6c-1,0-2,0-3,0C44.9,34.3,44.9,34.3,44.9,34.4z"/>
</g>
</svg>
